<svg width="70" height="70" viewBox="0 0 70 70" fill="none" xmlns="http://www.w3.org/2000/svg">
<path d="M21.4703 56H11.3094V23.2859H21.4703V56ZM16.3844 18.8234C13.1359 18.8234 10.5 16.1328 10.5 12.8844C10.5 11.3203 11.1234 9.83281 12.2281 8.72813C13.3328 7.62344 14.8313 7 16.3844 7C17.9375 7 19.4359 7.62344 20.5406 8.72813C21.6453 9.83281 22.2688 11.3313 22.2688 12.8844C22.2688 16.1328 19.6328 18.8234 16.3844 18.8234ZM59.4891 56H49.35V40.075C49.35 36.2797 49.2734 31.4125 44.0672 31.4125C38.7844 31.4125 37.975 35.5359 37.975 39.8016V56H27.825V23.2859H37.5703V27.7484H37.7125C39.0687 25.1781 42.3828 22.4656 47.3266 22.4656C57.6078 22.4656 59.5 29.2359 59.5 38.0297V56H59.4891Z" fill="black"/>
</svg>
