<svg width="36" height="38" viewBox="0 0 36 38" fill="none" xmlns="http://www.w3.org/2000/svg">
<path d="M31.5 7.68848H4.5C3.90326 7.68848 3.33097 7.92553 2.90901 8.34749C2.48705 8.76944 2.25 9.34174 2.25 9.93848V27.9244C2.25 28.5212 2.48705 29.0935 2.90901 29.5154C3.33097 29.9374 3.90326 30.1744 4.5 30.1744H31.5C32.0967 30.1744 32.669 29.9374 33.091 29.5154C33.5129 29.0935 33.75 28.5212 33.75 27.9244V9.93848C33.75 9.34174 33.5129 8.76944 33.091 8.34749C32.669 7.92553 32.0967 7.68848 31.5 7.68848ZM19.125 25.6885H16.875C16.5766 25.6885 16.2905 25.57 16.0795 25.359C15.8685 25.148 15.75 24.8619 15.75 24.5635C15.75 24.2651 15.8685 23.979 16.0795 23.768C16.2905 23.557 16.5766 23.4385 16.875 23.4385H19.125C19.4234 23.4385 19.7095 23.557 19.9205 23.768C20.1315 23.979 20.25 24.2651 20.25 24.5635C20.25 24.8619 20.1315 25.148 19.9205 25.359C19.7095 25.57 19.4234 25.6885 19.125 25.6885ZM28.125 25.6885H23.625C23.3266 25.6885 23.0405 25.57 22.8295 25.359C22.6185 25.148 22.5 24.8619 22.5 24.5635C22.5 24.2651 22.6185 23.979 22.8295 23.768C23.0405 23.557 23.3266 23.4385 23.625 23.4385H28.125C28.4234 23.4385 28.7095 23.557 28.9205 23.768C29.1315 23.979 29.25 24.2651 29.25 24.5635C29.25 24.8619 29.1315 25.148 28.9205 25.359C28.7095 25.57 28.4234 25.6885 28.125 25.6885ZM4.5 13.4401V9.93848H31.5V13.4401H4.5Z" fill="#011E41"/>
</svg>
