<svg width="20" height="20" viewBox="0 0 20 20" fill="none" xmlns="http://www.w3.org/2000/svg">
<path d="M3.38687 0.447227C2.07135 0.748894 0.843537 1.08827 0.655605 1.21397C0.0166391 1.62876 -0.0961197 2.14411 0.0667541 3.8787C0.492732 8.39114 2.28434 12.1243 5.47918 15.1787C8.59883 18.1451 12.2572 19.7414 16.4919 19.9802C17.9328 20.0556 18.4339 19.9299 18.7972 19.3517C18.9852 19.0626 20 14.5251 20 13.972C20 13.796 19.8747 13.4566 19.7118 13.2178C19.4738 12.8659 19.0854 12.6522 17.181 11.8226C15.9407 11.2821 14.7129 10.7919 14.4623 10.7165C13.7732 10.5154 13.2721 10.7919 12.4076 11.8226C11.9941 12.3128 11.6057 12.715 11.518 12.715C11.2675 12.7402 9.43826 11.2947 8.79929 10.5782C8.46102 10.2011 7.9724 9.57267 7.69676 9.15788L7.19561 8.42885L7.67171 8.0392C9.71389 6.38002 9.71389 6.39259 8.36079 3.21251C7.2332 0.572922 7.08286 0.321531 6.64435 0.145559C6.00538 -0.0932617 5.71722 -0.0681229 3.38687 0.447227ZM6.56918 3.77814C6.99515 4.79627 7.34596 5.70127 7.34596 5.76412C7.34596 5.83954 6.98263 6.19148 6.54412 6.556C5.61699 7.2976 5.25366 8.00149 5.39147 8.75566C5.60446 9.91205 8.00998 12.6773 9.83918 13.9091C11.0294 14.7136 11.6934 14.8016 12.5454 14.3114C12.8586 14.1228 13.1092 13.9343 13.1092 13.884C13.1217 13.8337 13.3598 13.5195 13.6605 13.1801L14.2117 12.5516L16.1787 13.4189C17.9202 14.1857 18.1332 14.3114 18.0706 14.5376C18.033 14.6885 17.8451 15.5557 17.6571 16.4608L17.3063 18.1325H16.7425C15.9908 18.1325 14.124 17.8183 13.1092 17.5292C8.08516 16.0585 3.9632 11.9609 2.50986 6.95822C2.19664 5.87724 1.83331 3.81585 1.83331 3.09939V2.7223L3.49963 2.33265C5.9678 1.75445 5.65458 1.60362 6.56918 3.77814Z" fill="black"/>
</svg>
