<svg width="213" height="187" viewBox="0 0 213 187" fill="none" xmlns="http://www.w3.org/2000/svg">
<path d="M27.3681 1.09429C16.9681 3.62763 4.56814 15.0943 1.6348 24.961C-0.631864 32.2943 -0.49853 156.028 1.76814 162.161C4.70147 170.161 11.3681 177.761 18.8348 181.894C25.9015 185.894 26.4348 185.894 48.7015 186.294C70.3015 186.694 71.6348 186.694 75.1015 183.894C80.0348 180.028 80.1681 173.228 75.2348 169.361C72.0348 166.828 69.9015 166.561 51.7681 166.561C30.0348 166.561 26.4348 165.628 21.9015 158.961C19.5015 155.361 19.3681 151.894 19.3681 93.2276C19.3681 34.561 19.5015 31.0943 21.9015 27.4943C26.4348 20.8276 30.0348 19.8943 51.7681 19.8943C69.9015 19.8943 72.0348 19.6276 75.2348 17.0943C77.7681 15.0943 78.7015 13.0943 78.7015 9.89429C78.7015 6.69429 77.7681 4.69429 75.2348 2.69429C71.9015 0.16096 70.0348 -0.105706 51.5015 0.027627C40.4348 0.16096 29.6348 0.56096 27.3681 1.09429Z" fill="white"/>
<path d="M142.968 33.2278C141.101 34.9611 140.035 37.6278 140.035 40.2944C140.035 44.0278 142.435 46.9611 158.701 63.2278C168.968 73.4944 177.368 82.2944 177.368 82.8278C177.368 83.4944 153.635 83.8944 124.701 83.8944C73.7681 83.8944 71.9015 84.0278 69.3681 86.5611C65.7681 90.1611 65.9015 97.3611 69.5015 100.694C72.1681 103.094 75.3681 103.228 125.101 103.628L177.768 104.028L158.968 123.094C141.768 140.294 140.035 142.561 140.035 146.828C140.035 152.561 143.768 156.294 149.501 156.294C152.968 156.294 157.501 152.428 182.835 127.094C209.768 100.161 212.035 97.4944 212.035 93.2278C212.035 88.9611 209.768 86.2944 182.968 59.6278C158.035 34.6944 153.235 30.5611 149.901 30.5611C147.635 30.5611 144.568 31.7611 142.968 33.2278Z" fill="white"/>
</svg>
