<svg width="36" height="25" viewBox="0 0 36 25" fill="none" xmlns="http://www.w3.org/2000/svg">
<path d="M2.6 0.285707C2.22 0.428566 1.6 0.803566 1.24 1.12499C0.04 2.16071 0 2.46428 0 12.4464C0 18.7143 0.08 21.6964 0.24 22.2857C0.52 23.3214 1.76 24.4643 2.92 24.7857C3.54 24.9464 7.34 25 18.22 25H32.7L33.7 24.5714C34.86 24.0893 35.26 23.7321 35.7 22.8036C35.96 22.25 36 20.7679 36 12.4107C36 3.17857 35.98 2.62499 35.62 1.99999C35.14 1.16071 34.5 0.624994 33.56 0.267851C32.9 0.0357075 30.94 -5.72205e-06 18.06 -5.72205e-06C5.34 0.0178509 3.2 0.053566 2.6 0.285707ZM32.88 3.07142C33.08 3.32142 33.2 3.85714 33.2 4.41071V5.35714H18.1H3V4.35714C3 2.49999 1.36 2.67857 18 2.67857H32.58L32.88 3.07142ZM33.2 16.125C33.2 20.7321 33.16 21.5893 32.88 21.9286L32.58 22.3214H18.1C5.22 22.3214 3.6 22.2857 3.32 22.0357C3.04 21.8036 3 21.0179 3 16.2321V10.7143H18.1H33.2V16.125Z" fill="#011E41"/>
<path d="M6.94122 17.0893C6.38122 17.2143 6.00122 18.1607 6.24122 18.8036C6.52122 19.4821 7.08122 19.6429 9.22122 19.6429C10.8612 19.6429 11.0612 19.6071 11.5012 19.1964C11.7812 18.9643 12.0012 18.5536 12.0012 18.3036C12.0012 18.0536 11.7812 17.6429 11.5012 17.4107C11.0612 17 10.8812 16.9643 9.16122 16.9821C8.14122 17 7.14122 17.0357 6.94122 17.0893Z" fill="#011E41"/>
<path d="M14.9375 17.0893C13.9375 17.3214 13.9375 19.1429 14.9375 19.4821C15.1975 19.5714 17.1175 19.6429 19.1775 19.6429C22.6775 19.6429 22.9775 19.625 23.4775 19.2679C23.8575 19 23.9975 18.7321 23.9975 18.3036C23.9975 17.875 23.8575 17.6071 23.4775 17.3393C22.9775 16.9821 22.6975 16.9643 19.1175 16.9821C17.0175 17 15.1375 17.0357 14.9375 17.0893Z" fill="#011E41"/>
</svg>
