<svg width="17" height="18" viewBox="0 0 17 18" fill="none" xmlns="http://www.w3.org/2000/svg">
<path d="M14.4538 2.79297C12.8638 1.15234 10.7464 0.25 8.49621 0.25C3.85156 0.25 0.0720982 4.14062 0.0720982 8.92188C0.0720982 10.4492 0.459152 11.9414 1.19531 13.2578L0 17.75L4.46629 16.543C5.69576 17.2344 7.0808 17.5977 8.49241 17.5977H8.49621C13.1371 17.5977 17 13.707 17 8.92578C17 6.60938 16.0438 4.43359 14.4538 2.79297ZM8.49621 16.1367C7.23638 16.1367 6.00312 15.7891 4.92924 15.1328L4.675 14.9766L2.02634 15.6914L2.73214 13.0312L2.56518 12.7578C1.86317 11.6094 1.49509 10.2852 1.49509 8.92188C1.49509 4.94922 4.63705 1.71484 8.5 1.71484C10.3708 1.71484 12.1277 2.46484 13.4482 3.82812C14.7688 5.19141 15.5808 7 15.577 8.92578C15.577 12.9023 12.3554 16.1367 8.49621 16.1367ZM12.3364 10.7383C12.1277 10.6289 11.0917 10.1055 10.8982 10.0352C10.7047 9.96094 10.5643 9.92578 10.4239 10.1445C10.2835 10.3633 9.88125 10.8477 9.75603 10.9961C9.6346 11.1406 9.50938 11.1602 9.30067 11.0508C8.06362 10.4141 7.25156 9.91406 6.43571 8.47266C6.21942 8.08984 6.65201 8.11719 7.05424 7.28906C7.12254 7.14453 7.08839 7.01953 7.03527 6.91016C6.98214 6.80078 6.56094 5.73438 6.38638 5.30078C6.21563 4.87891 6.04107 4.9375 5.91205 4.92969C5.79063 4.92188 5.65022 4.92188 5.50982 4.92188C5.36942 4.92188 5.14174 4.97656 4.94821 5.19141C4.75469 5.41016 4.21205 5.93359 4.21205 7C4.21205 8.06641 4.96719 9.09766 5.06964 9.24219C5.17589 9.38672 6.55335 11.5742 8.66696 12.5156C10.0027 13.1094 10.5263 13.1602 11.1942 13.0586C11.6002 12.9961 12.4388 12.5352 12.6134 12.0273C12.7879 11.5195 12.7879 11.0859 12.7348 10.9961C12.6855 10.8984 12.5451 10.8438 12.3364 10.7383Z" fill="black"/>
</svg>
