<svg width="31" height="27" viewBox="0 0 31 27" fill="none" xmlns="http://www.w3.org/2000/svg">
<path d="M0.65387 0.072052C0.180327 0.190437 -0.141006 1.08679 0.0619413 1.69563C0.298713 2.33829 0.772255 2.4905 2.48039 2.4905C3.79955 2.4905 3.88411 2.50741 3.96867 2.86257C4.0194 3.08243 4.67898 6.48179 5.44003 10.4223C6.25182 14.6673 6.94522 17.8637 7.13126 18.2358C7.53715 19.0138 8.46732 19.8086 9.31293 20.0623C9.75265 20.1807 12.4755 20.2484 18.0227 20.2484H26.0899L26.4958 19.8255C27.037 19.3013 27.037 18.6586 26.4958 18.1343L26.0899 17.7115H18.0735C9.04234 17.7115 9.46515 17.7792 9.16072 16.4431C8.83939 15.0394 8.04452 15.1747 16.8389 15.1747C22.3692 15.1747 24.8384 15.1239 25.2443 14.9717C26.1744 14.6504 27.0031 14.0246 27.3921 13.3482C27.6796 12.8408 29.3539 6.98916 30.0304 4.13099C30.0981 3.82657 30.0304 3.40376 29.8275 2.93022C29.2186 1.59415 29.7937 1.64489 17.2448 1.64489H6.16726L5.96431 1.25591C5.86284 1.05296 5.49077 0.697803 5.15252 0.461033C4.59442 0.0889645 4.35765 0.0382271 2.75099 0.00440216C1.77008 -0.0125103 0.822992 0.0213146 0.65387 0.072052ZM27.3583 4.46923C27.3076 4.63836 26.8509 6.3634 26.3097 8.32522C25.684 10.676 25.2443 12.0121 25.0075 12.2658L24.6523 12.6378L16.5345 12.604L8.41659 12.5533L7.70627 8.83259C7.30038 6.78621 6.94522 4.90895 6.89448 4.63836L6.80992 4.18172H17.1264C26.8847 4.18172 27.4429 4.19864 27.3583 4.46923Z" fill="#011E41"/>
<path d="M8.31635 22.1256C6.57439 22.819 6.15159 25.0852 7.5553 26.3198C9.66933 28.1633 12.6628 25.8125 11.3944 23.2925C10.8701 22.244 9.41565 21.6859 8.31635 22.1256Z" fill="#011E41"/>
<path d="M23.4349 22.1763C22.5555 22.5653 21.9805 23.4786 21.9805 24.4933C21.9805 26.8779 25.0416 27.9265 26.4115 25.9985C27.3247 24.7301 26.9188 23.022 25.5659 22.3116C24.7203 21.8888 24.196 21.855 23.4349 22.1763Z" fill="#011E41"/>
</svg>
