<svg width="20" height="16" viewBox="0 0 20 16" fill="none" xmlns="http://www.w3.org/2000/svg">
<path d="M2.5 2.375C2.15625 2.375 1.875 2.65625 1.875 3V3.86328L8.61328 9.39453C9.42188 10.0586 10.582 10.0586 11.3906 9.39453L18.125 3.86328V3C18.125 2.65625 17.8438 2.375 17.5 2.375H2.5ZM1.875 6.28906V13C1.875 13.3438 2.15625 13.625 2.5 13.625H17.5C17.8438 13.625 18.125 13.3438 18.125 13V6.28906L12.5781 10.8438C11.0781 12.0742 8.91797 12.0742 7.42188 10.8438L1.875 6.28906ZM0 3C0 1.62109 1.12109 0.5 2.5 0.5H17.5C18.8789 0.5 20 1.62109 20 3V13C20 14.3789 18.8789 15.5 17.5 15.5H2.5C1.12109 15.5 0 14.3789 0 13V3Z" fill="black"/>
</svg>
