<svg width="36" height="38" viewBox="0 0 36 38" fill="none" xmlns="http://www.w3.org/2000/svg">
<path d="M34.875 30.1878C34.875 30.4862 34.7565 30.7723 34.5455 30.9833C34.3345 31.1943 34.0484 31.3128 33.75 31.3128H2.25C1.95163 31.3128 1.66548 31.1943 1.4545 30.9833C1.24353 30.7723 1.125 30.4862 1.125 30.1878C1.125 29.8895 1.24353 29.6033 1.4545 29.3923C1.66548 29.1814 1.95163 29.0628 2.25 29.0628H33.75C34.0484 29.0628 34.3345 29.1814 34.5455 29.3923C34.7565 29.6033 34.875 29.8895 34.875 30.1878ZM2.29219 14.7472C2.22514 14.5114 2.23694 14.2602 2.32579 14.0318C2.41463 13.8033 2.57566 13.6101 2.78437 13.4816L17.4094 4.48153C17.5863 4.37044 17.7911 4.31152 18 4.31152C18.2089 4.31152 18.4137 4.37044 18.5906 4.48153L33.2156 13.4816C33.4234 13.6104 33.5836 13.8033 33.672 14.0313C33.7603 14.2592 33.772 14.5098 33.7053 14.745C33.6385 14.9801 33.497 15.1872 33.3021 15.3348C33.1072 15.4823 32.8695 15.5624 32.625 15.5628H29.25V24.5628H31.5C31.7984 24.5628 32.0845 24.6814 32.2955 24.8923C32.5065 25.1033 32.625 25.3895 32.625 25.6878C32.625 25.9862 32.5065 26.2723 32.2955 26.4833C32.0845 26.6943 31.7984 26.8128 31.5 26.8128H4.5C4.20163 26.8128 3.91548 26.6943 3.7045 26.4833C3.49353 26.2723 3.375 25.9862 3.375 25.6878C3.375 25.3895 3.49353 25.1033 3.7045 24.8923C3.91548 24.6814 4.20163 24.5628 4.5 24.5628H6.75V15.5628H3.375C3.13038 15.5631 2.89234 15.4836 2.69695 15.3364C2.50155 15.1892 2.35946 14.9824 2.29219 14.7472ZM20.25 23.4378C20.25 23.7362 20.3685 24.0223 20.5795 24.2333C20.7905 24.4443 21.0766 24.5628 21.375 24.5628C21.6734 24.5628 21.9595 24.4443 22.1705 24.2333C22.3815 24.0223 22.5 23.7362 22.5 23.4378V16.6878C22.5 16.3895 22.3815 16.1033 22.1705 15.8923C21.9595 15.6814 21.6734 15.5628 21.375 15.5628C21.0766 15.5628 20.7905 15.6814 20.5795 15.8923C20.3685 16.1033 20.25 16.3895 20.25 16.6878V23.4378ZM13.5 23.4378C13.5 23.7362 13.6185 24.0223 13.8295 24.2333C14.0405 24.4443 14.3266 24.5628 14.625 24.5628C14.9234 24.5628 15.2095 24.4443 15.4205 24.2333C15.6315 24.0223 15.75 23.7362 15.75 23.4378V16.6878C15.75 16.3895 15.6315 16.1033 15.4205 15.8923C15.2095 15.6814 14.9234 15.5628 14.625 15.5628C14.3266 15.5628 14.0405 15.6814 13.8295 15.8923C13.6185 16.1033 13.5 16.3895 13.5 16.6878V23.4378Z" fill="#011E41"/>
</svg>
