<svg width="70" height="70" viewBox="0 0 70 70" fill="none" xmlns="http://www.w3.org/2000/svg">
<path d="M59.5546 29.9578C54.7421 29.9687 50.039 28.4703 46.1234 25.6703V45.2156C46.1234 48.8359 45.0187 52.3687 42.9515 55.3438C40.8843 58.3188 37.964 60.5937 34.5734 61.8625C31.1828 63.1312 27.4859 63.3391 23.9749 62.4422C20.464 61.5453 17.314 59.6094 14.9296 56.8859C12.5453 54.1625 11.0687 50.7609 10.664 47.1625C10.2593 43.5641 10.9812 39.9328 12.6984 36.75C14.4156 33.5672 17.0734 30.9859 20.3109 29.3453C23.5484 27.7047 27.1906 27.1031 30.7781 27.5953V37.4281C29.1374 36.9141 27.3765 36.925 25.7468 37.4719C24.1171 38.0188 22.6953 39.0687 21.6999 40.4578C20.7046 41.8469 20.1687 43.5312 20.1796 45.2594C20.1906 46.9875 20.7484 48.65 21.7656 50.0391C22.7828 51.4281 24.2156 52.4562 25.8562 52.9812C27.4968 53.5062 29.2577 53.5062 30.8874 52.9703C32.5171 52.4344 33.9499 51.3953 34.9562 50.0063C35.9624 48.6172 36.5093 46.9328 36.5093 45.2156V7H46.1343C46.1234 7.80938 46.1999 8.62969 46.3421 9.42812C46.6812 11.2109 47.3702 12.9172 48.3874 14.4266C49.4046 15.9359 50.7171 17.2266 52.2374 18.2109C54.414 19.6438 56.9624 20.4094 59.5656 20.4094V29.9688L59.5546 29.9578Z" fill="black"/>
</svg>
