<svg width="187" height="148" viewBox="0 0 187 148" fill="none" xmlns="http://www.w3.org/2000/svg">
<path d="M3.40015 1.80006C0.06682 3.66673 0.200153 10.4667 3.53349 12.3334C7.13349 14.2001 180.2 14.2001 183.8 12.3334C187.267 10.4667 187.267 3.5334 183.8 1.66673C180.2 -0.199936 6.60015 -0.0666023 3.40015 1.80006Z" fill="white"/>
<path d="M3.40015 68.4666C0.06682 70.3332 0.200153 77.1332 3.53349 78.9999C7.13349 80.8666 180.2 80.8666 183.8 78.9999C187.267 77.1332 187.267 70.1999 183.8 68.3332C180.2 66.4666 6.60015 66.5999 3.40015 68.4666Z" fill="white"/>
<path d="M3.40015 135.133C0.06682 137 0.200153 143.8 3.53349 145.667C7.13349 147.533 180.2 147.533 183.8 145.667C187.267 143.8 187.267 136.867 183.8 135C180.2 133.133 6.60015 133.267 3.40015 135.133Z" fill="white"/>
</svg>
