<svg width="35" height="28" viewBox="0 0 35 28" fill="none" xmlns="http://www.w3.org/2000/svg">
<path d="M2.26485 0.276962C1.31278 0.69241 0.551131 1.54061 0.274167 2.49267C-0.0547272 3.61784 -0.106658 18.5739 0.222237 19.8722C0.48189 20.9454 1.55513 22.0186 2.66298 22.3129C3.32077 22.5033 3.49387 22.6418 3.58042 23.0053C3.92663 24.7363 4.49787 25.7576 5.62303 26.6405C6.48855 27.3329 7.44061 27.6098 8.84274 27.5925C11.37 27.5579 13.4819 25.7576 13.7935 23.3342L13.9146 22.5033H17.3421H20.7868L20.8734 22.988C21.2369 24.7536 21.7908 25.7403 22.9333 26.6405C24.7335 28.0772 27.884 27.8868 29.5804 26.2596C30.3248 25.5499 30.9825 24.2863 31.121 23.2823L31.2249 22.5033H32.5058C33.631 22.5033 33.8387 22.4514 34.2022 22.0706C34.4446 21.8455 34.635 21.4474 34.635 21.205C34.635 20.6338 33.908 19.9068 33.3367 19.9068H32.904V16.2889C32.904 14.1252 32.8347 12.4634 32.7136 12.1691C32.4712 11.5113 26.7242 5.72969 26.0318 5.43542C25.7029 5.29693 24.872 5.19307 24.0065 5.19307H22.5525L22.5005 3.73901C22.4313 2.45805 22.3794 2.1984 21.912 1.54061C21.635 1.14248 21.0465 0.623167 20.631 0.398134L19.8694 -1.90735e-06H11.37C4.16897 0.0173092 2.78415 0.0519295 2.26485 0.276962ZM19.7136 2.80426C20.0078 3.09853 20.0078 19.4048 19.7136 19.6991C19.5751 19.8375 18.5884 19.9068 16.4073 19.9068H13.3088L12.5991 19.1278C10.4353 16.6525 6.4193 16.7909 4.60173 19.3875C4.34207 19.7683 4.11704 19.9068 3.7016 19.9068C2.57643 19.9068 2.61105 20.2011 2.61105 11.3209C2.61105 6.0932 2.68029 3.15046 2.78415 2.92543C2.95726 2.61385 3.23422 2.59653 11.2316 2.59653C17.4459 2.59653 19.5578 2.64847 19.7136 2.80426ZM27.6244 10.3861L30.2209 12.9827H26.3607H22.5178V10.3861V7.78961H23.7815H25.0278L27.6244 10.3861ZM9.88135 20.2184C12.2355 21.3955 11.3873 25.0999 8.75619 25.0999C6.71358 25.0999 5.38069 22.711 6.55779 21.1358C7.40599 19.976 8.70426 19.6125 9.88135 20.2184ZM27.1916 20.2184C28.0571 20.6511 28.5764 21.5166 28.5764 22.5033C28.5764 23.49 28.0571 24.3555 27.1916 24.7883C25.8933 25.4461 24.3008 24.9268 23.7122 23.6631C23.3141 22.7457 23.3141 22.261 23.7122 21.3435C24.3008 20.0799 25.8933 19.5606 27.1916 20.2184Z" fill="#011E41"/>
</svg>
