<svg width="25" height="29" viewBox="0 0 25 29" fill="none" xmlns="http://www.w3.org/2000/svg">
<path d="M10.974 0.0540695C9.94259 0.267471 8.27093 1.19221 7.45289 2.01026C3.94954 5.51361 4.99876 11.4 9.498 13.4984C10.5828 13.9964 10.8851 14.0497 12.3967 14.0675C13.9261 14.0675 14.1928 14.0141 15.2599 13.5162C15.9179 13.1961 16.7715 12.6626 17.1627 12.3069C20.2392 9.53269 20.2748 4.66 17.2694 1.88577C16.0246 0.747627 14.4596 0.0896368 12.788 0.0185022C12.041 -0.017065 11.223 0.00071907 10.974 0.0540695ZM13.8372 2.86387C16.3447 3.71748 17.5362 6.52727 16.4158 8.92805C15.9001 10.0484 14.9753 10.8309 13.6949 11.2221C11.3831 11.9512 8.89336 10.6353 8.1998 8.32341C7.8797 7.29197 7.8797 6.79403 8.21758 5.67366C8.53769 4.58887 9.46243 3.59299 10.6895 3.02392C11.7387 2.52598 12.7168 2.49041 13.8372 2.86387Z" fill="#011E41"/>
<path d="M7.64944 17.0907C7.0448 17.2152 5.99558 17.6242 5.33759 17.9621C2.33217 19.5448 0.589384 22.0701 0.109229 25.5201C-0.0508231 26.6938 -0.0508231 26.9428 0.21593 27.4229C0.375982 27.743 0.713869 28.0809 0.945054 28.1876C1.26516 28.3299 4.71516 28.3832 12.5933 28.3832H23.8147L24.3304 27.8675C24.935 27.2451 24.9884 26.5337 24.5794 24.5598C23.8858 21.2698 21.6273 18.709 18.3196 17.4108C17.1458 16.9484 16.968 16.9306 12.9312 16.8773C9.83682 16.8417 8.46749 16.8951 7.64944 17.0907ZM18.1062 20.1495C20.0446 21.1098 21.6806 23.1549 22.0541 25.1288L22.1786 25.7157H12.3976H2.63449L2.91903 24.7732C3.66593 22.2479 5.3198 20.5585 7.86285 19.7404C8.37857 19.5626 9.69455 19.5093 12.7533 19.5448L16.9324 19.5804L18.1062 20.1495Z" fill="#011E41"/>
</svg>
