<svg xmlns="http://www.w3.org/2000/svg" width="282" height="42" viewBox="0 0 282 42" fill="none">
  <g clip-path="url(#clip0_63_70)">
    <path d="M29.3687 1.46612C29.6528 0.900054 29.8431 0.568903 32.0732 0.568903C33.1158 0.568903 36.2947 0.475502 37.9566 0.333984C38.0503 0.617019 38.0503 0.996286 38.0503 1.18592C38.0503 1.65859 37.9083 1.98974 37.5276 2.08314C35.0135 2.46241 34.7294 2.83884 34.7294 3.88041C34.7294 4.30497 35.8203 26.0024 35.9623 27.7997C36.0106 29.0281 36.4367 29.4526 38.8571 29.8319C39.1895 29.88 39.3799 30.163 39.3799 30.7291C39.3799 30.9188 39.3316 31.2952 39.2861 31.5329C37.056 31.4395 35.4907 31.298 33.2124 31.298C31.1243 31.298 28.4681 31.4395 26.9028 31.5329C26.8545 31.298 26.8091 30.9188 26.8091 30.7291C26.8091 30.0668 27.0932 29.8319 27.2835 29.8319C29.8914 29.3592 30.3687 28.9347 30.3687 27.6582C30.3687 27.1374 29.5619 9.79019 29.4198 8.46558L19.6928 31.0122C19.4087 31.5782 19.2183 31.8641 18.8377 31.8641C18.6956 31.8641 18.4115 31.8641 18.2695 31.816L7.25834 5.53051C7.1163 8.03537 6.26121 27.228 6.26121 27.794C6.26121 28.9743 6.54529 29.3536 9.15603 29.8262C9.48841 29.8744 9.67875 30.1093 9.67875 30.7235C9.67875 30.9131 9.63046 31.2442 9.585 31.5273C7.87765 31.3858 6.45438 31.2924 5.03112 31.2924C3.79819 31.2924 1.61641 31.4339 0.0965557 31.5273C0.00280762 31.2924 0.00280762 30.9131 0.00280762 30.7235C0.00280762 30.0612 0.238598 29.8715 0.525524 29.8262C2.47151 29.4017 3.32376 28.929 3.42035 27.794C3.5141 26.2345 4.55953 4.25402 4.55953 3.87475C4.55953 2.83601 4.08511 2.45675 1.76129 2.07748C1.38062 2.02936 1.23858 1.69821 1.23858 1.18026C1.23858 0.990626 1.23858 0.614189 1.33233 0.328323C2.99422 0.469841 7.64186 0.563242 8.82934 0.563242C11.0594 0.563242 11.2952 0.894394 11.5338 1.46046L20.3575 22.6853L29.3687 1.46612Z" fill="#011E41"></path>
    <path d="M58.4022 0C67.5128 0 74.4871 6.66548 74.4871 15.9292C74.4871 25.193 67.277 31.8584 58.4022 31.8584C49.5274 31.8584 42.3656 25.193 42.3656 15.9292C42.3656 6.66548 49.5302 0 58.4022 0ZM67.9389 18.2444C67.9389 9.26374 64.5242 2.50486 57.5017 2.50486C53.0415 2.50486 48.9138 6.52396 48.9138 13.2347C48.9138 22.5947 52.6608 29.4017 59.1153 29.4017C64.3822 29.4017 67.9389 24.4372 67.9389 18.2473V18.2444Z" fill="#011E41"></path>
    <path d="M97.069 8.36652C96.2139 8.36652 95.8843 7.94196 95.7395 7.5627C94.3162 3.97098 92.1344 2.50486 88.2907 2.50486C85.2539 2.50486 82.8335 4.01627 82.8335 6.99663C82.8335 13.9451 99.2025 11.4884 99.2025 22.5013C99.2025 27.3242 95.9752 31.8613 88.3845 31.8613C84.2567 31.8613 80.842 30.7744 78.7057 29.6875C78.5154 26.9931 78.0892 24.3467 77.5665 21.8871C77.8023 21.7937 78.325 21.6975 78.6574 21.6975C79.4159 21.6975 79.7483 21.9324 79.9869 22.6428C81.6943 27.4657 83.8306 29.4498 88.4328 29.4498C92.3219 29.4498 93.9838 27.1346 93.9838 24.5816C93.9838 16.4981 78.3733 20.2795 78.3733 8.98353C78.3733 3.97381 82.1687 0.00283051 88.5748 0.00283051C91.1856 0.00283051 93.7935 0.523615 97.1627 1.84539C97.2565 3.73606 97.5888 6.33716 97.9695 8.22783C97.6854 8.32123 97.3048 8.36935 97.069 8.36935V8.36652Z" fill="#011E41"></path>
    <path d="M123.304 31.4339C127.622 32.6141 129.281 35.2633 132.034 37.1059C133.506 38.0994 134.406 38.1928 135.213 38.1928C136.02 38.1928 136.636 37.8616 136.969 37.8616C137.349 37.8616 137.585 38.1446 137.727 38.4758C136.352 40.0353 134.597 41.1222 132.509 41.1222C125.202 41.1222 122.782 34.1255 116.236 31.6688C108.123 30.2989 102.714 24.1995 102.714 15.9292C102.714 7.13814 109.878 0 118.75 0C127.622 0 134.835 6.66548 134.835 15.9292C134.835 22.9711 130.375 29.3055 123.307 31.2442V31.4339H123.304ZM128.284 18.2444C128.284 9.26374 124.87 2.50486 117.847 2.50486C113.387 2.50486 109.259 6.52396 109.259 13.2347C109.259 22.5947 113.006 29.4017 119.461 29.4017C124.728 29.4017 128.284 24.4373 128.284 18.2473V18.2444Z" fill="#011E41"></path>
    <path d="M165.954 19.6172C165.954 26.7553 163.25 31.8584 153.761 31.8584C142.469 31.8584 140.619 26.5176 140.619 19.804V4.1125C140.619 2.7879 140.051 2.36335 137.489 2.08031C137.156 2.03219 136.966 1.70104 136.966 1.18309C136.966 0.993456 136.966 0.617019 137.06 0.331154C138.909 0.472671 140.807 0.566073 143.653 0.566073C145.835 0.566073 148.446 0.472671 150.344 0.331154C150.392 0.614189 150.437 0.993456 150.437 1.18309C150.437 1.70387 150.247 2.03503 149.915 2.08031C147.352 2.36335 146.594 2.83601 146.594 4.1125V18.7652C146.594 25.2892 148.775 28.7875 154.707 28.7875C160.639 28.7875 163.105 25.81 163.105 18.6237V4.1125C163.105 2.83601 162.394 2.36335 159.926 2.08031C159.545 1.98691 159.358 1.65576 159.358 1.18309C159.358 0.993456 159.406 0.617019 159.451 0.331154C161.255 0.520787 162.724 0.566073 164.48 0.566073C166.519 0.566073 167.991 0.517957 169.508 0.331154C169.556 0.614189 169.602 0.993456 169.602 1.18309C169.602 1.60764 169.366 1.98691 169.033 2.08031C166.71 2.31523 165.948 2.83601 165.948 4.1125V19.6172H165.954Z" fill="#011E41"></path>
    <path d="M182.891 2.92941V14.3216H189.581C190.766 14.3216 191.053 13.4244 191.385 11.2025C191.434 10.7299 191.811 10.5883 192.286 10.5883C192.476 10.5883 192.996 10.6365 193.186 10.6817C193.044 12.0997 192.951 14.3216 192.951 15.6462C192.951 16.7811 192.999 18.3407 193.186 20.2795C192.996 20.3729 192.476 20.421 192.286 20.421C191.763 20.421 191.431 20.2313 191.385 19.7587C191.005 17.3472 190.627 16.6849 189.581 16.6849H182.891V27.2733C182.891 28.5979 184.408 28.9262 188.3 28.9262H190.292C194.039 28.9262 195.368 26.8006 196.885 23.8202C196.979 23.5825 197.266 23.4891 197.55 23.4891C197.882 23.4891 198.357 23.7268 198.783 23.9136C198.641 24.3863 198.499 24.859 198.357 25.2835C198.073 25.9911 197.882 26.8912 197.692 27.4119C197.408 28.6884 197.027 30.7206 196.837 31.1452C196.695 31.4282 196.456 31.5244 196.078 31.5244C195.13 31.5244 191.951 31.2895 190.289 31.2895H179.519C177.67 31.2895 175.059 31.431 173.161 31.5244C173.067 31.2895 173.068 30.7687 173.068 30.5791C173.068 30.1064 173.21 29.8715 173.542 29.8234C175.914 29.3989 176.911 29.0196 176.911 27.7912V4.1125C176.911 2.83601 176.201 2.55298 173.542 2.08031C173.21 1.98691 173.068 1.70104 173.068 1.22837C173.068 0.945337 173.067 0.614186 173.161 0.331151C175.866 0.520785 177.954 0.56607 179.471 0.56607H189.198C192.044 0.56607 194.226 0.283035 194.988 0.283035C195.32 0.283035 195.604 0.424553 195.746 0.707588C195.936 1.22837 195.982 2.73978 196.314 4.2059C196.505 5.24464 196.695 6.14469 197.215 7.60798C196.931 7.7495 196.502 7.89102 196.124 7.89102C195.791 7.89102 195.556 7.79762 195.365 7.46646C193.848 4.15779 192.661 2.92941 189.198 2.92941H182.888H182.891Z" fill="#011E41"></path>
    <path d="M211.263 27.7941C211.263 29.0224 211.499 29.447 214.203 29.8262C214.487 29.8744 214.677 30.2055 214.677 30.6301C214.677 30.8197 214.629 31.2924 214.584 31.5273C212.544 31.4339 210.03 31.2924 208.274 31.2924C206.518 31.2924 203.956 31.4339 201.965 31.5273C201.871 31.2924 201.871 30.8197 201.871 30.6301C201.871 30.2055 202.013 29.8744 202.345 29.8262C205.001 29.447 205.286 29.0224 205.286 27.7941V4.1125C205.286 2.88413 205.001 2.45675 202.345 2.08031C202.013 1.98691 201.871 1.65576 201.871 1.27649C201.871 1.08686 201.871 0.614189 201.965 0.331154C203.956 0.472671 206.473 0.566073 208.274 0.566073C210.075 0.566073 212.544 0.472671 214.584 0.331154C214.632 0.614189 214.677 1.08686 214.677 1.27649C214.677 1.65576 214.487 1.98691 214.203 2.08031C211.499 2.45958 211.263 2.88413 211.263 4.1125V27.7941Z" fill="#011E41"></path>
    <path d="M230.333 17.585H228.294V27.4629C228.294 28.929 229.433 29.3536 232.373 29.7328C232.799 29.781 233.038 30.064 233.038 30.6782C233.038 30.8678 232.99 31.2924 232.944 31.5301C231.14 31.3886 228.248 31.2952 225.021 31.2952C222.743 31.2952 220.609 31.3886 218.76 31.5301C218.666 31.2952 218.666 30.9159 218.666 30.7263C218.666 30.1121 218.902 29.8744 219.189 29.8291C221.845 29.3564 222.319 29.0252 222.319 27.7969V4.1125C222.319 2.83601 221.609 2.36335 218.998 2.08031C218.714 1.98691 218.476 1.74916 218.476 1.13497C218.476 0.900054 218.476 0.520787 218.569 0.331154C220.325 0.472671 222.933 0.566073 224.737 0.566073H231.902C238.637 0.566073 242.671 4.01627 242.671 9.07411C242.671 12.3828 240.489 15.3603 236.882 16.733L244.33 27.5591C245.469 29.2121 247.083 29.6394 248.364 29.9706C248.648 30.0187 248.887 30.2055 248.887 30.7744C248.887 31.0093 248.887 31.3886 248.793 31.6716C247.37 31.5782 243.433 31.4367 241.629 31.4367C240.299 31.4367 238.924 30.2083 237.691 28.4111L230.336 17.5878L230.333 17.585ZM229.717 15.2216C233.609 15.2216 236.169 13.897 236.169 9.26657C236.169 5.39182 234.509 2.93225 229.717 2.93225H228.294V15.2216H229.717Z" fill="#011E41"></path>
    <path d="M269.188 20.8937H259.225L256.759 27.4629C256.569 27.794 256.523 28.2186 256.523 28.4082C256.523 29.0705 257.046 29.5432 259.037 29.8262C259.418 29.8744 259.702 30.1093 259.702 30.7235C259.702 30.9131 259.654 31.2895 259.608 31.5273C257.901 31.3858 255.907 31.2924 254.106 31.2924C252.824 31.2924 251.495 31.3405 249.787 31.5273C249.694 31.2924 249.694 30.9131 249.694 30.7235C249.694 30.1574 249.836 29.8262 250.31 29.7781C252.256 29.3989 252.966 29.0677 253.441 28.029L264.872 0.80382C265.156 0.237749 265.583 0 266.012 0C266.296 0 266.628 0.048116 267.009 0.0934016L278.443 28.1705C278.824 29.1158 280.008 29.5404 281.29 29.73C281.764 29.8234 282.003 30.0612 282.003 30.6753C282.003 30.865 281.954 31.2895 281.909 31.5273C279.918 31.3858 277.875 31.2924 276.168 31.2924C274.46 31.2924 270.807 31.4339 269.003 31.5273C268.909 31.2924 268.909 30.9131 268.909 30.7235C268.909 30.1574 269.193 29.8715 269.432 29.8262C271.046 29.5432 271.852 29.1639 271.852 28.3601C271.852 28.1705 271.804 27.9356 271.71 27.6525L269.196 20.8937H269.188ZM268.287 18.5303L264.253 7.89385L260.125 18.5303H268.287Z" fill="#011E41"></path>
  </g>
  <defs>
    <clipPath id="clip0_63_70">
      <rect width="282" height="41.125" fill="#011E41"></rect>
    </clipPath>
  </defs>
</svg>